<?xml version="1.0" encoding="UTF-8" standalone="no"?>
<!-- Created with Inkscape (http://www.inkscape.org/) -->

<svg
   xmlns:dc="http://purl.org/dc/elements/1.1/"
   xmlns:cc="http://creativecommons.org/ns#"
   xmlns:rdf="http://www.w3.org/1999/02/22-rdf-syntax-ns#"
   xmlns:svg="http://www.w3.org/2000/svg"
   xmlns="http://www.w3.org/2000/svg"
   xmlns:xlink="http://www.w3.org/1999/xlink"
   xmlns:sodipodi="http://sodipodi.sourceforge.net/DTD/sodipodi-0.dtd"
   xmlns:inkscape="http://www.inkscape.org/namespaces/inkscape"
   width="164.51898mm"
   height="164.51898mm"
   viewBox="0 0 582.94127 582.94127"
   id="svg2"
   version="1.1"
   inkscape:version="0.91 r13725"
   sodipodi:docname="icon.svg">
  <defs
     id="defs4">
    <linearGradient
       inkscape:collect="always"
       id="linearGradient4160">
      <stop
         style="stop-color:#e57452;stop-opacity:1"
         offset="0"
         id="stop4162" />
      <stop
         style="stop-color:#970a1a;stop-opacity:1"
         offset="1"
         id="stop4164" />
    </linearGradient>
    <linearGradient
       inkscape:collect="always"
       xlink:href="#linearGradient4160"
       id="linearGradient4166"
       x1="328.57144"
       y1="178.07649"
       x2="328.57144"
       y2="612.36218"
       gradientUnits="userSpaceOnUse" />
  </defs>
  <sodipodi:namedview
     id="base"
     pagecolor="#ffffff"
     bordercolor="#666666"
     borderopacity="1.0"
     inkscape:pageopacity="0.0"
     inkscape:pageshadow="2"
     inkscape:zoom="0.98994949"
     inkscape:cx="206.33298"
     inkscape:cy="282.78557"
     inkscape:document-units="px"
     inkscape:current-layer="layer1"
     showgrid="false"
     fit-margin-top="0"
     fit-margin-left="0"
     fit-margin-right="0"
     fit-margin-bottom="0"
     inkscape:window-width="1680"
     inkscape:window-height="985"
     inkscape:window-x="0"
     inkscape:window-y="0"
     inkscape:window-maximized="1" />
  <metadata
     id="metadata7">
    <rdf:RDF>
      <cc:Work
         rdf:about="">
        <dc:format>image/svg+xml</dc:format>
        <dc:type
           rdf:resource="http://purl.org/dc/dcmitype/StillImage" />
        <dc:title></dc:title>
      </cc:Work>
    </rdf:RDF>
  </metadata>
  <g
     inkscape:label="Layer 1"
     inkscape:groupmode="layer"
     id="layer1"
     transform="translate(-16.999268,-98.769745)">
    <circle
       style="fill:#58595b;fill-opacity:1;stroke:none;stroke-width:2.5;stroke-linecap:round;stroke-miterlimit:4;stroke-dasharray:7.5, 7.5;stroke-dashoffset:0;stroke-opacity:1"
       id="path4168"
       cx="308.46991"
       cy="390.24039"
       r="291.47064" />
    <path
       style="fill:url(#linearGradient4166);fill-opacity:1"
       d="m 299.8192,626.05358 c -1.1745,-0.56871 -2.72433,-2.13436 -3.44407,-3.47921 -1.53217,-2.86289 -1.1443,-4.46401 4.97704,-20.54496 7.64976,-20.09617 13.08952,-46.35749 15.08109,-72.80645 1.43817,-19.0995 1.27224,-31.61672 -0.5098,-38.45845 -6.67045,-25.60956 -32.90836,-41.52695 -57.77551,-35.04988 -17.34143,4.51687 -30.66978,17.80268 -35.16211,35.04988 -0.86481,3.32024 -1.53119,10.09314 -1.53119,15.56259 0,24.43092 -5.02631,52.28397 -12.19441,67.57478 -2.18147,4.65343 -6.29844,6.85243 -10.09301,5.39095 -1.21692,-0.46869 -5.21458,-3.97063 -8.8837,-7.78208 -8.30385,-8.62598 -8.93029,-11.04402 -5.99619,-23.14512 3.23315,-13.33446 4.18511,-20.93427 5.14291,-41.05735 1.15764,-24.32191 3.88157,-34.48253 12.98123,-48.42182 11.36049,-17.40251 27.01158,-28.52295 48.54317,-34.49097 4.31919,-1.19717 9.78181,-1.64142 19.5,-1.58584 12.33615,0.0705 14.32156,0.34828 23.02963,3.22162 29.28902,9.66426 49.51323,33.09436 54.91964,63.62535 2.17265,12.26934 0.85869,41.79499 -3.02911,68.06634 -3.30192,22.31229 -12.51221,55.64987 -17.46142,63.20331 -3.15604,4.81674 -7.18236,6.29473 -16.95874,6.22527 -4.95,-0.0352 -9.96095,-0.52925 -11.13545,-1.09796 z m -54.39276,-14.40339 c -12.34594,-5.90344 -14.20341,-9.13258 -9.99657,-17.37866 10.23316,-20.05866 16.26781,-47.56997 17.82835,-81.27751 0.67094,-14.49237 1.04492,-17.09116 2.79725,-19.43822 3.87782,-5.19392 7.09174,-6.83284 13.39918,-6.83284 6.32234,0 9.52046,1.63771 13.43386,6.87929 2.68742,3.5995 3.18804,13.85971 1.62269,33.25698 -2.42507,30.0506 -7.80986,52.85491 -18.04154,76.40494 -5.78491,13.31499 -8.48494,14.39099 -21.04322,8.38602 z m 125.72218,1.54668 c -1.41667,-1.11434 -2.83705,-2.84937 -3.15642,-3.85561 -0.31937,-1.00624 0.95354,-8.082 2.82869,-15.72391 6.21587,-25.33191 9.32271,-48.70329 10.28832,-77.39439 0.91826,-27.2845 -1.67362,-42.78369 -10.15901,-60.75004 -6.19058,-13.10747 -12.6976,-22.42737 -22.50787,-32.23764 -43.85341,-43.85341 -114.12195,-43.85341 -157.97536,0 -17.81405,17.81405 -28.58655,39.75644 -32.03458,65.25091 -1.29421,9.56928 -2.73786,12.30554 -6.9845,13.23825 -6.44049,1.41457 -8.84607,-2.07619 -15.39852,-22.34492 -5.32274,-16.4649 -4.91884,-20.93958 3.52941,-39.10068 12.52954,-26.93459 37.97063,-53.04243 64.815,-66.51364 10.26961,-5.15356 24.6867,-10.21331 36.1042,-12.67096 15.0881,-3.24775 42.82524,-3.24775 57.91334,0 28.19983,6.07008 52.10833,19.10921 72.58558,39.58647 20.44596,20.44595 33.40216,44.17812 39.62697,72.58558 2.06809,9.43788 2.28512,12.94111 2.22757,35.95667 -0.0687,27.48345 -1.5973,45.08555 -5.97635,68.81987 -3.74383,20.29143 -8.0646,26.77766 -22.39223,33.61466 -8.66563,4.13516 -9.85909,4.27294 -13.33424,1.53938 z m 75.18448,-62.94161 c -2.95076,-2.95077 -2.96322,-3.01214 -2.18176,-10.75 0.43227,-4.28027 0.78023,-18.8073 0.77325,-32.2823 -0.011,-21.15707 -0.31774,-26.1021 -2.24823,-36.24166 -9.12019,-47.90194 -37.17154,-90.04362 -77.22171,-116.01052 -19.45516,-12.61394 -42.04827,-21.6665 -64.75834,-25.94725 -16.80812,-3.16825 -45.6752,-3.16825 -62.48332,0 -22.71007,4.28075 -45.30318,13.33331 -64.75834,25.94725 -11.18931,7.25469 -16.44298,11.57529 -28.68431,23.58986 -11.34979,11.13955 -13.96629,12.18647 -18.94152,7.57899 -2.58975,-2.39834 -2.60472,-2.49838 -1.97283,-13.18778 1.02532,-17.34474 4.16096,-23.78684 16.38051,-33.65337 17.33718,-13.9987 41.83541,-27.1503 64.26243,-34.49858 52.26594,-17.12509 107.24171,-13.29693 156.45572,10.89457 65.23494,32.06669 108.00279,93.92447 115.56452,167.14809 1.71901,16.64591 0.91746,34.67199 -1.80831,40.66726 -3.03422,6.67371 -16.08068,26.47679 -18.61057,28.24879 -3.22339,2.25775 -6.51232,1.75152 -9.76719,-1.50335 z m 46.98275,-137.2823 c -1.0931,-1.2375 -3.68591,-6.075 -5.76179,-10.75 C 464.61314,350.55882 418.15886,305.0101 365.25841,282.31127 301.53698,254.9693 233.0306,255.59274 169.5221,284.09254 c -6.2879,2.82173 -12.62196,5.13042 -14.07569,5.13042 -3.36423,0 -6.99176,-3.8122 -6.99176,-7.34769 0,-6.19171 10.51931,-21.72376 19.30146,-28.49914 12.25964,-9.45824 35.37304,-16.62303 68.69854,-21.29547 14.31929,-2.00766 54.43165,-1.72 69.5,0.4984 74.99995,11.04166 137.82689,48.51689 182.97895,109.1439 14.71881,19.76337 17.52105,28.19286 17.52105,52.70542 0,15.53274 -0.0545,15.93999 -2.45455,18.34003 -3.18143,3.18144 -7.97367,3.27319 -10.68425,0.20455 z M 448.40473,256.50421 c -53.97638,-39.488 -121.46896,-60.23519 -188.45008,-57.92949 -9.9,0.34079 -19.66662,0.90655 -21.70361,1.25724 -3.22824,0.55579 -4.09462,0.24662 -6.75,-2.40876 -6.35601,-6.35601 -3.38712,-10.77804 12.23413,-18.22217 17.90855,-8.53412 27.49447,-11.30114 40.77394,-11.76958 39.27566,-1.38549 106.34994,16.55566 137.20961,36.70106 12.69502,8.2874 27.3701,23.31748 39.54659,40.50324 4.8907,6.90269 5.33612,10.53134 1.73479,14.13266 -3.70698,3.70699 -7.16702,3.17023 -14.59537,-2.2642 z"
       id="path4147"
       inkscape:connector-curvature="0" />
  </g>
</svg>
